/* XPM */
static char * dark_oak_door_xpm[] = {
"16 16 8 1",
" 	c #493116",
".	c #53361A",
"+	c #412B13",
"@	c #291A0C",
"#	c #32210F",
"$	c #3D2812",
"%	c #724A24",
"&	c #624224",
"  .... ..       ",
" +@@@@#..+@@@@# ",
" @$$$$%. @$$$$% ",
" @$   %  @$   %.",
" #   .%. #   .%.",
" # ...%..# ...%.",
" #&&%%&..#&&%%& ",
" .. ..... ... . ",
"  .... .   ...  ",
" +@@@@#. +@@@@#.",
" @$$$$% .@$$$$%.",
" @$   %..@$   %.",
" #   .%..#   .%.",
" # ...%..# ...% ",
" #&&%%& .#&&%%& ",
"   ...  ....    "};
